<?xml version="1.0" encoding="utf-8"?>
<!-- Generator: Adobe Illustrator 16.0.0, SVG Export Plug-In . SVG Version: 6.00 Build 0)  -->
<!DOCTYPE svg PUBLIC "-//W3C//DTD SVG 1.1//EN" "http://www.w3.org/Graphics/SVG/1.1/DTD/svg11.dtd">
<svg version="1.1" id="Layer_1" xmlns="http://www.w3.org/2000/svg" xmlns:xlink="http://www.w3.org/1999/xlink" x="0px" y="0px"
	 width="960px" height="560px" viewBox="0 0 960 560" enable-background="new 0 0 960 560" xml:space="preserve">
<path fill="#697891" stroke="#000000" stroke-width="3" d="M754.198,464.922c10.714,1.227,21.392,2.791,32.063,4.359
	c12.321,1.808,24.577,4.149,36.94,5.565c17.438,1.996,34.9,3.146,51.025,11.418c5.708,2.928,13.046,3.668,18.13-1.178
	c5.252-5.004,3.834-11.927,1.239-18.07c-4.07-9.639-8.904-18.971-12.644-28.729c-9.326-24.328-17.66-48.957-16.946-75.551
	c0.117-4.361,0.895-8.703,1.211-13.064c0.231-3.154-0.115-6.299-3.663-7.533c-3.729-1.297-6.967,0.209-8.636,3.433
	c-1.992,3.844-4.337,8.102-4.424,12.225c-0.255,12.111-0.797,24.473,1.229,36.316c2.897,16.922,8.055,33.452,12.09,50.188
	c2.279,9.459,1.308,11.071-8.418,10.638c-11.081-0.492-22.112-2.123-33.172-3.193c-30.866-2.987-61.739-5.918-92.604-8.937
	c-3.348-0.325-6.7-0.883-9.965-1.68c-5.122-1.252-8.589-5.028-9.044-9.846c-0.345-3.631,1.005-8.103,3.104-11.172
	c13.904-20.345,27.788-40.729,42.526-60.468c12.3-16.472,24.952-32.831,38.938-47.855c12.576-13.506,27.292-25.008,40.771-37.705
	c2.127-2.005,4.165-5.983,3.602-8.45c-0.589-2.59-4.007-5.487-6.8-6.424c-5.566-1.864-11.319-1.3-16.389,2.439
	c-2.978,2.198-6.027,4.348-9.242,6.17c-30.856,17.491-64.681,26.971-98.581,36.145c-9.645,2.611-13.421-0.408-13.617-10.213
	c-0.494-24.653-0.072-49.251,4.243-73.652c2.801-15.84,3.06-17.618,18.848-16.39c4.333,0.337,9.519,1.944,13.011-2.604
	c-0.02-4.259-3.007-5.147-6.027-5.826c-3.614-0.812-7.307-1.286-10.903-2.161c-9.939-2.421-12.162-5.194-12.38-15.487
	c-0.137-6.42,0.169-12.854-0.118-19.264c-0.804-18.083-12.153-27.226-30.361-25.309c-16.327,1.718-28.704,9.064-36.641,23.604
	c-1.293,2.366-2.828,4.609-4.376,6.823c-4.55,6.508-6.751,7.317-14.553,5.508c-24.96-5.786-49.838-11.962-74.919-17.161
	c-9.306-1.928-14.078-6.808-16.523-15.423c-1.373-4.839-3.293-9.586-5.498-14.115c-5.525-11.346-12.076-12.875-24.309-8.993
	c-5.831,1.852-8.732,7.098-11.397,12.299c-4.311,8.413-4.987,8.496-14.169,5.853c-33.695-9.699-67.375-19.46-101.155-28.851
	c-31.853-8.856-63.74-17.619-95.772-25.789c-32.674-8.335-65.526-15.981-98.357-23.687c-3.803-0.893-8.301-1.227-11.862-0.014
	c-2.998,1.022-6.354,4.276-7.293,7.254c-1.274,4.033,2.579,6.745,6.072,8.183c3.399,1.399,7.125,2.021,10.727,2.905
	c38.657,9.495,77.433,18.53,115.938,28.608c27.733,7.259,55.053,16.087,82.657,23.861c18.177,5.121,36.535,9.593,54.796,14.407
	c3.258,0.859,6.52,1.791,9.648,3.02c3.994,1.569,5.5,4.214,4.176,8.805c-2.758,9.558-6.354,12.294-16.32,9.928
	c-29.533-7.011-58.961-14.476-88.49-21.504c-21.678-5.159-43.06-11.154-64.072-18.671c-5.695-2.037-12.748-1.533-18.945-0.621
	c-9.564,1.407-9.662,2.106-14.739-5.381c-4.134-6.094-9.222-10.123-16.854-8.575c-8.323,1.687-15.434,5.469-17.781,14.522
	c-1.091,4.215-2.026,8.602-2.089,12.924c-0.252,16.874-0.037,33.755-0.201,50.63c-0.044,4.488,1.539,9.43-3.153,14.363
	c-2.419-1.788-4.853-3.286-6.933-5.174c-7.717-7.004-16.59-9.614-27.016-8.766c-13.827,1.124-24.275,8.186-32.734,18.183
	c-17.388,20.548-21.422,45.667-20.904,71.271c0.366,18.097,3.937,36.129,6.024,54.198c0.205,1.778,0.026,3.603,0.026,8.104
	c-5.959-5.33-10.074-9.078-14.264-12.736c-3.031-2.648-5.877-5.685-9.319-7.646c-4.878-2.78-13.89-0.163-17.343,4.438
	c-4.081,5.438,0.337,8.762,3.334,12.189c14.88,17.021,29.782,34.027,44.855,50.877c8.775,9.811,17.769,19.432,26.894,28.916
	c6.06,6.299,9.118,6.629,17.085,2.973c1.841-0.846,3.695-1.7,5.424-2.746c5.463-3.302,6.913-7.108,4.127-12.735
	c-2.084-4.209-4.979-8.021-7.558-11.98c-14.229-21.84-27.483-43.959-31.985-70.402c-3.675-21.576-3.475-43.079-0.787-64.519
	c1.197-9.544,4.621-19.034,8.469-27.929c2.123-4.909,6.654-9.301,11.104-12.553c6.104-4.463,10.639-3.001,13.733,4.027
	c4.62,10.495,9.066,21.123,12.658,32.002c9.197,27.871,17.776,55.948,26.88,83.851c1.492,4.573,1.288,8.242-0.911,12.496
	c-3.473,6.717-2.624,9.848,4.41,12.723c6.383,2.611,9.598,6.998,11.418,13.129c1.442,4.854,2.937,9.695,4.565,14.49
	c6.392,18.84,12.748,37.694,19.352,56.461c1.559,4.43,3.741,8.717,6.195,12.729c1.72,2.813,4.084,5.445,6.706,7.441
	c4.467,3.404,13.191,3.402,16.137,0.293c4.449-4.695,0.592-8.588-1.339-12.795c-6.197-13.502-12.374-27.02-18.155-40.703
	c-1.537-3.641-4.111-7.815-0.379-12.973c2.187,2.354,4.033,4.121,5.619,6.098c4.434,5.525,8.422,11.451,13.224,16.625
	c4.79,5.162,9.628,11.089,15.722,14.068c15.057,7.355,29.98,15.237,47.406,16.715c15.081,1.278,29.687,1.923,43.283-6.058
	c7.342-4.308,13.444-3.295,20.258,2.214c6.168,4.983,13.672,8.599,21.06,11.692c4.692,1.965,10.45,2.99,15.88-3.541
	c-3.688-2.783-6.434-5.234-9.521-7.123c-17.789-10.889-29.39-26.568-35.842-46.178c-2.74-8.322-4.735-16.894-7.581-25.174
	c-2.113-6.152-1.866-10.625,4.098-14.855c5.673-4.023,4.992-10.023-0.563-14.311c-1.323-1.023-2.853-1.826-4.382-2.521
	c-4.736-2.154-7.066-5.799-7.888-10.924c-1.442-8.99-3.68-17.864-4.885-26.88c-2.011-15.035-4.227-30.106-4.962-45.229
	c-0.852-17.534-0.754-35.167,0.018-52.709c0.427-9.668,2.625-19.349,4.896-28.815c1.563-6.515,5.027-8.325,11.377-6.885
	c12.175,2.76,24.3,5.785,36.358,9.029c6.419,1.727,8.032,4.532,7.565,11.11c-3.334,46.965-1.132,93.895,4.215,140.475
	c3.021,26.324,10.68,52.162,17.018,78.029c1.809,7.383,5.93,14.318,9.742,21.031c1.709,3.009,4.9,5.761,8.068,7.229
	c6.605,3.063,11.562-1.106,10.146-8.248c-0.784-3.942-2.479-7.696-3.587-11.588c-4.622-16.223-10.471-32.229-13.454-48.75
	c-4.607-25.506-7.937-51.302-10.521-77.101c-2.938-29.322-0.429-58.691,2.083-87.968c0.279-3.266,1.603-6.551,2.982-9.581
	c1.271-2.79,3.641-5.935,6.925-4.103c2.109,1.174,3.409,4.562,4.138,7.214c0.588,2.143-0.302,4.665-0.396,7.024
	c-0.465,11.792-1.28,23.587-1.227,35.378c0.082,18.554,0.746,37.105,1.19,55.655c0.115,4.776-0.206,9.051-3.833,13.084
	c-4.978,5.533-4.706,7.625,1.267,12.427c4.796,3.853,7.806,8.381,8.569,14.326c2.441,18.992,8.733,36.485,17.93,53.362
	c8.335,15.296,19.1,27.48,33.991,36.455c34.662,20.895,77.519,0.934,85.997-31.577c-0.148-0.204-0.29-0.424-0.417-0.674
	c-1.396-2.759-2.274-6.868-4.568-9.039c-1.781-1.686-3.979-2.275-6.286-2.463c-0.921,1.615-1.732,3.33-2.547,5.027
	c-3.865,8.06-9.007,14.989-16.162,20.428c-21.318,16.209-43.194,9.289-58.07-6.467c-15.899-16.84-23.509-37.445-25.935-60.123
	c-1.074-10.026,0.974-11.645,11.361-10.297c22.375,2.903,44.767,5.694,67.123,8.728c7.987,1.084,15.94,2.532,23.812,4.258
	c2.063,0.453,4.581,2.146,5.498,3.971l19.14,42.227c3.998,8.899,6.059,10.136,15.592,8.509c3.313-0.564,6.636-1.395,9.783-2.564
	c6.459-2.395,8.247-6.293,5.693-12.752c-4.831-12.224-9.962-24.328-14.855-36.529c-4.266-10.639-10.307-21.028-12.079-32.091
	c-2.378-14.836-3.556-30.531-1.353-45.275c3.123-20.906,9.289-41.427,15.111-61.842c5.119-17.956,7.026-18.509,25.195-13.729
	c6.827,1.797,9.225,4.038,9.467,11.216c0.308,9.096,0.295,18.27-0.539,27.323c-1.548,16.755-4.594,33.386-2.099,50.337
	c0.635,4.297,0.329,8.795-0.03,13.159c-0.52,6.311-3.251,8.971-9.657,9.484c-4.369,0.351-8.786,0.052-13.177,0.22
	c-4.637,0.178-8.789,1.553-10.439,6.434c-1.36,4.024,0.912,8.773,6.413,11.38c4.762,2.254,10.054,3.869,15.273,4.578
	c10.182,1.385,11.435,2.201,12.525,12.01c0.334,3.012,1.119,6.006,1.15,9.012c0.221,21.07,4.474,41.623,9.146,61.949
	c2.646,11.508,1.311,19.689-9.023,25.988c-3.394,2.069-6.617,4.866-9.024,8.012c-5.158,6.74-2.778,13.02,5.423,15.105
	c2.905,0.738,5.999,1.276,8.968,1.131 M262.495,138.017c19.786,5.615,39.515,11.428,59.285,17.099
	c5.508,1.579,11.144,2.72,16.615,4.412c6.962,2.154,8.825,4.397,8.654,11.673c-0.259,11.107-1.466,22.196-1.569,33.299
	c-0.163,17.506,0.302,35.016,0.417,52.526c0.079,12.043,0.016,24.088,0.016,36.402c-5.142,1.65-7.088-2.592-9.285-5.609
	c-4.164-5.721-8.188-11.582-11.781-17.673c-23.993-40.684-47.879-81.433-71.717-122.209c-1.621-2.774-2.558-5.949-3.735-8.752
	C254.2,134.627,258.484,136.881,262.495,138.017z M250.395,335.746c-12.266-31.451-24.352-62.894-26.235-97.206
	c-0.588-10.717-3.44-21.312-4.006-32.027c-0.94-17.805-0.971-35.661-1.13-53.498c-0.028-3.219,1.163-6.447,1.792-9.671
	c0.968-0.305,1.936-0.61,2.905-0.915c1.844,2.524,4.034,4.865,5.486,7.595c27.246,51.249,56.661,101.229,87.682,150.271
	c7.025,11.105,14.476,21.94,21.709,32.915c0.92,1.399,1.914,2.805,2.514,4.346c1.411,3.643,0.012,5.922-3.818,6.488
	c-2.989,0.443-6.019,0.891-9.031,0.877c-21.893-0.091-43.786-0.353-65.68-0.44C256.316,344.455,252.589,341.371,250.395,335.746z
	 M365.011,377.829c3.5,11.25,7.009,22.498,10.235,33.83c2.136,7.5,1.208,9.399-5.503,13.002
	c-16.369,8.787-32.441,10.24-50.123,1.953c-21.938-10.284-38.772-25.205-50.641-46.06c-1.496-2.631-2.954-5.324-4.039-8.139
	c-2.472-6.416-1.002-8.648,5.811-8.992c2.975-0.151,11.25-0.09,10.105-0.031l1.145-0.058l50.079,3.99
	c5.666,0.246,11.381-0.998,17.081-1.08C359.734,366.095,361.87,367.737,365.011,377.829z M489.024,166.724
	c0.901-4.536,4.739-7.841,9.116-8.085c8.313-0.464,16.557,7.557,16.316,15.875c-0.105,3.659-2.225,5.288-9.119,5.407
	c-2.531-0.709-7.128-1.708-11.504-3.303C489.312,174.971,488.138,171.174,489.024,166.724z M553.07,317.846
	c-20.991-0.926-41.377-5.328-61.57-10.826c-6.717-1.827-8.728-7.087-9.212-13.063c-1.143-14.091-2.498-28.197-2.775-42.316
	c-0.27-13.729,0.674-27.483,1.146-41.225c0.067-2.008,0.3-4.043,0.75-5.997c1.692-7.345,4.003-9.294,11.211-8.454
	c7.018,0.817,13.99,2.119,20.928,3.477c5.066,0.992,8.177,4.619,10.135,9.113c3.364,7.722,6.561,15.521,9.696,23.34
	c10.037,25.032,20.049,50.074,29.961,75.154c1.063,2.689,1.402,5.664,2.629,10.82C560.28,317.868,556.67,318.005,553.07,317.846z
	 M612.058,195.543c-3.568,14.008-6.381,28.209-9.59,42.31c-1.023,4.497-2.285,8.938-3.437,13.406
	c-1.019,0.152-2.035,0.304-3.052,0.455c-1.279-2.571-2.827-5.047-3.762-7.737c-1.103-3.168-1.637-6.532-2.488-9.792
	c-2.842-10.894-6.193-13.018-17.291-11.81c-6.938,0.755-11.283,3.899-12.323,11.044c-0.179,1.215-0.726,2.377-1.588,5.097
	c-7.355-9.434-9.834-19.554-13.018-29.282c-0.333-1.016,1.233-3.05,2.4-4.05c1.216-1.043,2.99-1.47,4.562-2.052
	c4.237-1.569,8.734-3.338,8.029-8.829c-0.619-4.819-5.096-5.781-9.121-6.654c-3.618-0.785-7.59-0.807-10.792-2.401
	c-3.053-1.52-6.213-4.2-7.646-7.179c-1.223-2.538-1.074-6.889,0.41-9.175c1.021-1.574,5.539-1.808,8.195-1.243
	c20.737,4.419,41.414,9.126,62.085,13.851C613.457,183.747,614.438,186.208,612.058,195.543z M675.005,164.578
	c0,1.012,0.1,2.035-0.016,3.034c-0.579,5.027-0.603,11.534-6.313,12.548c-5.194,0.922-11.135-0.859-16.416-2.506
	c-3.079-0.96-4.136-4.769-2.311-7.748c3.497-5.709,7.065-11.5,11.52-16.428c1.778-1.966,6.326-2.909,8.968-2.13
	c2.004,0.591,3.329,4.525,4.295,7.209c0.642,1.791,0.12,4,0.12,6.021H675.005z M698.051,387.14
	c-3.962-17.164-4.798-34.655-5.177-52.194c-0.111-5.174,2.247-8.383,6.999-9.783c4.843-1.426,9.86-2.272,14.666-3.799
	c14.765-4.692,29.448-9.638,44.203-14.362c3.311-1.061,6.78-1.625,10.176-2.418c0.504,1.048,1.007,2.097,1.509,3.146
	c-25.524,26.393-42.023,59.783-68.396,87.56C700.21,391.644,698.6,389.515,698.051,387.14z"/>
<line fill="none" stroke="#000000" stroke-miterlimit="10" x1="193.782" y1="197.769" x2="193.782" y2="197.769"/>
<path fill="none" stroke="#000000" stroke-width="3" stroke-miterlimit="10" d="M558.527,238.516c0,0,37.681,101.787,41.215,108.859
	L558.527,238.516z"/>
<line fill="none" stroke="#000000" stroke-width="2" x1="238.305" y1="119.316" x2="249.395" y2="139.184"/>
<path fill="none" stroke="#000000" stroke-width="2" d="M617.096,384.673c2.084,4.479,4.167,8.958,6.251,13.437"/>
<path fill="none" stroke="#000000" stroke-width="2" d="M610.952,371.468c0.688,1.479,1.376,2.958,2.064,4.438"/>
<path fill="none" stroke="#000000" stroke-width="2" d="M599.742,347.375c3.048,6.552,6.097,13.103,9.145,19.654"/>
<line fill="none" stroke="#000000" stroke-width="3" x1="608.054" y1="365.238" x2="617.737" y2="386.052"/>
<path fill="none" stroke="#000000" stroke-width="3" d="M702.03,395.288c2.488-2.668-6.864,4.204-6.53,13.87"/>
<path fill="none" stroke="#000000" stroke-width="3" d="M739.123,464.133c-9.296-0.488,7.696,0.406,11.386,0.598"/>
<path fill="none" stroke="#000000" stroke-width="3" d="M704.608,462.32c11.233,0.669,16.813,0.883,25.219,1.324"/>
<line fill="none" stroke="#000000" stroke-width="3" x1="676.346" y1="460.666" x2="704.608" y2="462.32"/>
<line fill="none" stroke="#000000" stroke-width="3" x1="729.827" y1="463.645" x2="754.198" y2="464.922"/>
<line fill="none" stroke="#000000" stroke-width="2" x1="193.782" y1="197.769" x2="203.5" y2="214.5"/>
<line fill="none" stroke="#000000" stroke-width="3" x1="253.551" y1="394.903" x2="243.85" y2="384.673"/>
</svg>
