<?xml version="1.0" encoding="utf-8"?>
<!-- Generator: Adobe Illustrator 16.0.0, SVG Export Plug-In . SVG Version: 6.00 Build 0)  -->
<!DOCTYPE svg PUBLIC "-//W3C//DTD SVG 1.1//EN" "http://www.w3.org/Graphics/SVG/1.1/DTD/svg11.dtd">
<svg version="1.1" xmlns="http://www.w3.org/2000/svg" xmlns:xlink="http://www.w3.org/1999/xlink" x="0px" y="0px" width="960px"
	 height="560px" viewBox="0 0 960 560" enable-background="new 0 0 960 560" xml:space="preserve">
<g id="Layer_1">
	<path fill="none" stroke="#000000" stroke-miterlimit="10" d="M368.045,216.561"/>
	<path fill="none" stroke="#000000" stroke-miterlimit="10" d="M368.045,216.561"/>
	<path fill="#006D76" stroke="#000000" stroke-width="3" stroke-miterlimit="10" d="M525.885,337.697L500.086,466.16l-68.689,4.479
		l-17.881-94.046l-8.305-43.685"/>
	<path fill="#00A4AC" stroke="#000000" stroke-width="3" stroke-miterlimit="10" d="M467,340.09c-46.43,0-84-2.568-84-5.742
		C354,149.66,411.579,61.985,485,53.966s124,48.804,102,122.488s-38,125.359-39,145.454c-1,20.096,0,12.44,0,12.44
		c0,1.815-11.844,3.432-30.357,4.484C503.777,339.618,486.172,340.09,467,340.09"/>
	<ellipse fill="#1A1A1A" stroke="#000000" stroke-width="5" stroke-miterlimit="10" cx="418" cy="190.5" rx="26" ry="56.5"/>
	<path fill="#1A1A1A" stroke="#000000" stroke-width="5" stroke-miterlimit="10" d="M563,164.5C563,86.754,564.741,48,523.5,48
		c-21.815,0-39.5,52.159-39.5,116.5c0,64.342,17.685,116.5,39.5,116.5S563,228.842,563,164.5z"/>
</g>
<g id="Layer_2">
</g>
</svg>
